<mxfile host="app.diagrams.net" modified="2023-05-22T13:47:54.071Z" agent="Mozilla/5.0 (X11; Linux x86_64; rv:109.0) Gecko/20100101 Firefox/111.0" etag="ZP72wAJw3gnox9Ofqm4r" version="21.3.0" type="device">
  <diagram name="PÃ¡gina-1" id="ZcNabq-aFEKHEhBWhNkF">
    <mxGraphModel dx="3187" dy="2867" grid="1" gridSize="10" guides="1" tooltips="1" connect="1" arrows="1" fold="1" page="1" pageScale="1" pageWidth="827" pageHeight="1169" math="0" shadow="0">
      <root>
        <mxCell id="0" />
        <mxCell id="1" parent="0" />
        <mxCell id="BQeZC8B6REmf6_BrCCmU-63" value="h" style="rounded=0;whiteSpace=wrap;html=1;strokeColor=none;fillColor=#D381A4;opacity=70;" parent="1" vertex="1">
          <mxGeometry x="60" y="-300" width="2140" height="1750" as="geometry" />
        </mxCell>
        <mxCell id="BQeZC8B6REmf6_BrCCmU-1" value="" style="whiteSpace=wrap;html=1;aspect=fixed;fillColor=#f9f7ed;strokeColor=#36393d;" parent="1" vertex="1">
          <mxGeometry x="130" y="-50" width="1290" height="1290" as="geometry" />
        </mxCell>
        <mxCell id="BQeZC8B6REmf6_BrCCmU-2" value="&lt;div style=&quot;font-size: 40px;&quot;&gt;&lt;font size=&quot;1&quot;&gt;&lt;b&gt;&lt;font style=&quot;font-size: 40px;&quot;&gt;uP16&lt;/font&gt;&lt;/b&gt;&lt;/font&gt;&lt;/div&gt;" style="text;html=1;strokeColor=none;fillColor=none;align=center;verticalAlign=middle;whiteSpace=wrap;rounded=0;" parent="1" vertex="1">
          <mxGeometry x="130" y="-50" width="110" height="60" as="geometry" />
        </mxCell>
        <mxCell id="BQeZC8B6REmf6_BrCCmU-77" style="edgeStyle=orthogonalEdgeStyle;rounded=0;orthogonalLoop=1;jettySize=auto;html=1;entryX=1.025;entryY=0.08;entryDx=0;entryDy=0;entryPerimeter=0;" parent="1" source="BQeZC8B6REmf6_BrCCmU-3" target="BQeZC8B6REmf6_BrCCmU-26" edge="1">
          <mxGeometry relative="1" as="geometry">
            <mxPoint x="540" y="792" as="targetPoint" />
            <Array as="points">
              <mxPoint x="600" y="760" />
              <mxPoint x="600" y="792" />
            </Array>
          </mxGeometry>
        </mxCell>
        <mxCell id="BQeZC8B6REmf6_BrCCmU-78" style="edgeStyle=orthogonalEdgeStyle;rounded=0;orthogonalLoop=1;jettySize=auto;html=1;" parent="1" source="BQeZC8B6REmf6_BrCCmU-3" target="BQeZC8B6REmf6_BrCCmU-12" edge="1">
          <mxGeometry relative="1" as="geometry">
            <Array as="points">
              <mxPoint x="1000" y="840" />
              <mxPoint x="1258" y="840" />
            </Array>
          </mxGeometry>
        </mxCell>
        <mxCell id="BQeZC8B6REmf6_BrCCmU-80" style="edgeStyle=orthogonalEdgeStyle;rounded=0;orthogonalLoop=1;jettySize=auto;html=1;entryX=0;entryY=0.5;entryDx=0;entryDy=0;" parent="1" source="BQeZC8B6REmf6_BrCCmU-3" target="BQeZC8B6REmf6_BrCCmU-14" edge="1">
          <mxGeometry relative="1" as="geometry">
            <Array as="points">
              <mxPoint x="980" y="1110" />
            </Array>
          </mxGeometry>
        </mxCell>
        <mxCell id="BQeZC8B6REmf6_BrCCmU-81" style="edgeStyle=orthogonalEdgeStyle;rounded=0;orthogonalLoop=1;jettySize=auto;html=1;entryX=0.993;entryY=0.195;entryDx=0;entryDy=0;entryPerimeter=0;" parent="1" source="BQeZC8B6REmf6_BrCCmU-3" target="BQeZC8B6REmf6_BrCCmU-13" edge="1">
          <mxGeometry relative="1" as="geometry">
            <mxPoint x="470" y="1130" as="targetPoint" />
            <Array as="points">
              <mxPoint x="960" y="1130" />
            </Array>
          </mxGeometry>
        </mxCell>
        <mxCell id="BQeZC8B6REmf6_BrCCmU-82" style="edgeStyle=orthogonalEdgeStyle;rounded=0;orthogonalLoop=1;jettySize=auto;html=1;" parent="1" source="BQeZC8B6REmf6_BrCCmU-3" target="BQeZC8B6REmf6_BrCCmU-10" edge="1">
          <mxGeometry relative="1" as="geometry">
            <Array as="points">
              <mxPoint x="770" y="655" />
              <mxPoint x="770" y="655" />
            </Array>
          </mxGeometry>
        </mxCell>
        <mxCell id="BQeZC8B6REmf6_BrCCmU-83" style="edgeStyle=orthogonalEdgeStyle;rounded=0;orthogonalLoop=1;jettySize=auto;html=1;entryX=0;entryY=0.5;entryDx=0;entryDy=0;" parent="1" source="BQeZC8B6REmf6_BrCCmU-3" target="BQeZC8B6REmf6_BrCCmU-22" edge="1">
          <mxGeometry relative="1" as="geometry">
            <Array as="points">
              <mxPoint x="540" y="630" />
              <mxPoint x="540" y="490" />
            </Array>
          </mxGeometry>
        </mxCell>
        <mxCell id="BQeZC8B6REmf6_BrCCmU-84" style="edgeStyle=orthogonalEdgeStyle;rounded=0;orthogonalLoop=1;jettySize=auto;html=1;entryX=0.999;entryY=0.412;entryDx=0;entryDy=0;entryPerimeter=0;" parent="1" source="BQeZC8B6REmf6_BrCCmU-3" target="BQeZC8B6REmf6_BrCCmU-4" edge="1">
          <mxGeometry relative="1" as="geometry" />
        </mxCell>
        <mxCell id="BQeZC8B6REmf6_BrCCmU-85" style="edgeStyle=orthogonalEdgeStyle;rounded=0;orthogonalLoop=1;jettySize=auto;html=1;entryX=0.5;entryY=1;entryDx=0;entryDy=0;" parent="1" source="BQeZC8B6REmf6_BrCCmU-3" target="BQeZC8B6REmf6_BrCCmU-5" edge="1">
          <mxGeometry relative="1" as="geometry">
            <Array as="points">
              <mxPoint x="1258" y="570" />
            </Array>
          </mxGeometry>
        </mxCell>
        <mxCell id="BQeZC8B6REmf6_BrCCmU-87" style="edgeStyle=orthogonalEdgeStyle;rounded=0;orthogonalLoop=1;jettySize=auto;html=1;" parent="1" source="BQeZC8B6REmf6_BrCCmU-3" target="BQeZC8B6REmf6_BrCCmU-6" edge="1">
          <mxGeometry relative="1" as="geometry">
            <Array as="points">
              <mxPoint x="1070" y="230" />
              <mxPoint x="1258" y="230" />
            </Array>
          </mxGeometry>
        </mxCell>
        <mxCell id="BQeZC8B6REmf6_BrCCmU-88" style="edgeStyle=orthogonalEdgeStyle;rounded=0;orthogonalLoop=1;jettySize=auto;html=1;" parent="1" source="BQeZC8B6REmf6_BrCCmU-3" target="BQeZC8B6REmf6_BrCCmU-21" edge="1">
          <mxGeometry relative="1" as="geometry">
            <Array as="points">
              <mxPoint x="630" y="580" />
            </Array>
          </mxGeometry>
        </mxCell>
        <mxCell id="BQeZC8B6REmf6_BrCCmU-90" style="edgeStyle=orthogonalEdgeStyle;rounded=0;orthogonalLoop=1;jettySize=auto;html=1;entryX=0.5;entryY=1;entryDx=0;entryDy=0;" parent="1" source="BQeZC8B6REmf6_BrCCmU-3" target="BQeZC8B6REmf6_BrCCmU-8" edge="1">
          <mxGeometry relative="1" as="geometry">
            <Array as="points">
              <mxPoint x="570" y="610" />
              <mxPoint x="570" y="180" />
              <mxPoint x="477" y="180" />
            </Array>
          </mxGeometry>
        </mxCell>
        <mxCell id="BQeZC8B6REmf6_BrCCmU-91" style="edgeStyle=orthogonalEdgeStyle;rounded=0;orthogonalLoop=1;jettySize=auto;html=1;" parent="1" source="BQeZC8B6REmf6_BrCCmU-3" target="BQeZC8B6REmf6_BrCCmU-9" edge="1">
          <mxGeometry relative="1" as="geometry">
            <Array as="points">
              <mxPoint x="590" y="590" />
              <mxPoint x="590" y="80" />
              <mxPoint x="480" y="80" />
            </Array>
          </mxGeometry>
        </mxCell>
        <mxCell id="BQeZC8B6REmf6_BrCCmU-3" value="&lt;font size=&quot;1&quot;&gt;&lt;b style=&quot;font-size: 40px;&quot;&gt;CPU&lt;/b&gt;&lt;/font&gt;" style="whiteSpace=wrap;html=1;aspect=fixed;fillColor=#dae8fc;strokeColor=#6c8ebf;" parent="1" vertex="1">
          <mxGeometry x="880" y="560" width="240" height="240" as="geometry" />
        </mxCell>
        <mxCell id="BQeZC8B6REmf6_BrCCmU-4" value="&lt;font style=&quot;font-size: 24px;&quot;&gt;&lt;b style=&quot;font-size: 24px;&quot;&gt;IR&lt;/b&gt;&lt;/font&gt;" style="whiteSpace=wrap;html=1;aspect=fixed;fillColor=#f5f5f5;fontColor=#333333;strokeColor=#666666;fontSize=24;" parent="1" vertex="1">
          <mxGeometry x="880" y="397.5" width="80" height="80" as="geometry" />
        </mxCell>
        <mxCell id="BQeZC8B6REmf6_BrCCmU-5" value="&lt;div style=&quot;font-size: 24px;&quot;&gt;&lt;font style=&quot;font-size: 24px;&quot;&gt;&lt;b style=&quot;font-size: 24px;&quot;&gt;MDRI&lt;/b&gt;&lt;/font&gt;&lt;/div&gt;" style="whiteSpace=wrap;html=1;aspect=fixed;fillColor=#f5f5f5;fontColor=#333333;strokeColor=#666666;fontSize=24;" parent="1" vertex="1">
          <mxGeometry x="1217.5" y="280" width="80" height="80" as="geometry" />
        </mxCell>
        <mxCell id="BQeZC8B6REmf6_BrCCmU-6" value="&lt;div style=&quot;font-size: 24px;&quot;&gt;&lt;b style=&quot;font-size: 24px;&quot;&gt;MAR&lt;/b&gt;&lt;/div&gt;" style="whiteSpace=wrap;html=1;aspect=fixed;fillColor=#f5f5f5;fontColor=#333333;strokeColor=#666666;fontSize=24;" parent="1" vertex="1">
          <mxGeometry x="1217.5" y="120" width="80" height="80" as="geometry" />
        </mxCell>
        <mxCell id="BQeZC8B6REmf6_BrCCmU-8" value="IX" style="whiteSpace=wrap;html=1;aspect=fixed;fillColor=#f5f5f5;fontColor=#333333;strokeColor=#666666;fontSize=24;" parent="1" vertex="1">
          <mxGeometry x="441.73" y="90" width="70" height="70" as="geometry" />
        </mxCell>
        <mxCell id="BQeZC8B6REmf6_BrCCmU-9" value="PC16R" style="whiteSpace=wrap;html=1;aspect=fixed;fillColor=#f5f5f5;fontColor=#333333;strokeColor=#666666;fontSize=24;" parent="1" vertex="1">
          <mxGeometry x="441.73" y="-20" width="80" height="80" as="geometry" />
        </mxCell>
        <mxCell id="BQeZC8B6REmf6_BrCCmU-10" value="RX" style="whiteSpace=wrap;html=1;aspect=fixed;fillColor=#f5f5f5;fontColor=#333333;strokeColor=#666666;fontSize=24;" parent="1" vertex="1">
          <mxGeometry x="360" y="615" width="80" height="80" as="geometry" />
        </mxCell>
        <mxCell id="BQeZC8B6REmf6_BrCCmU-73" style="edgeStyle=orthogonalEdgeStyle;rounded=0;orthogonalLoop=1;jettySize=auto;html=1;" parent="1" source="BQeZC8B6REmf6_BrCCmU-11" edge="1">
          <mxGeometry relative="1" as="geometry">
            <mxPoint x="890" y="800" as="targetPoint" />
            <Array as="points">
              <mxPoint x="890" y="840" />
            </Array>
          </mxGeometry>
        </mxCell>
        <mxCell id="BQeZC8B6REmf6_BrCCmU-11" value="CCR" style="whiteSpace=wrap;html=1;aspect=fixed;fillColor=#f5f5f5;fontColor=#333333;strokeColor=#666666;fontSize=24;" parent="1" vertex="1">
          <mxGeometry x="630" y="800" width="80" height="80" as="geometry" />
        </mxCell>
        <mxCell id="BQeZC8B6REmf6_BrCCmU-12" value="MDRO" style="whiteSpace=wrap;html=1;aspect=fixed;fillColor=#f5f5f5;fontColor=#333333;strokeColor=#666666;fontSize=24;" parent="1" vertex="1">
          <mxGeometry x="1218.75" y="990.62" width="80" height="80" as="geometry" />
        </mxCell>
        <mxCell id="BQeZC8B6REmf6_BrCCmU-13" value="REGPA" style="whiteSpace=wrap;html=1;aspect=fixed;fillColor=#f5f5f5;fontColor=#333333;strokeColor=#666666;fontSize=24;" parent="1" vertex="1">
          <mxGeometry x="350" y="1110" width="100" height="100" as="geometry" />
        </mxCell>
        <mxCell id="BQeZC8B6REmf6_BrCCmU-14" value="REGPB" style="whiteSpace=wrap;html=1;aspect=fixed;fillColor=#f5f5f5;fontColor=#333333;strokeColor=#666666;fontSize=24;" parent="1" vertex="1">
          <mxGeometry x="1600" y="1060" width="100" height="100" as="geometry" />
        </mxCell>
        <mxCell id="BQeZC8B6REmf6_BrCCmU-18" value="&lt;font size=&quot;1&quot;&gt;&lt;b&gt;&lt;font style=&quot;font-size: 30px;&quot;&gt;MEMORY&lt;/font&gt;&lt;/b&gt;&lt;/font&gt;" style="rounded=0;whiteSpace=wrap;html=1;fillColor=#dae8fc;strokeColor=#6c8ebf;" parent="1" vertex="1">
          <mxGeometry x="1880" y="50" width="220" height="1150" as="geometry" />
        </mxCell>
        <mxCell id="BQeZC8B6REmf6_BrCCmU-20" value="&lt;div style=&quot;font-size: 24px;&quot;&gt;MUXMDRI&lt;/div&gt;" style="shape=trapezoid;perimeter=trapezoidPerimeter;whiteSpace=wrap;html=1;fixedSize=1;rotation=-90;fillColor=#fff2cc;strokeColor=#d6b656;fontSize=24;" parent="1" vertex="1">
          <mxGeometry x="1390" y="290" width="220" height="60" as="geometry" />
        </mxCell>
        <mxCell id="BQeZC8B6REmf6_BrCCmU-21" value="MUXMAR2" style="shape=trapezoid;perimeter=trapezoidPerimeter;whiteSpace=wrap;html=1;fixedSize=1;rotation=90;fillColor=#fff2cc;strokeColor=#d6b656;fontSize=24;" parent="1" vertex="1">
          <mxGeometry x="492.5" y="97.5" width="275" height="60" as="geometry" />
        </mxCell>
        <mxCell id="BQeZC8B6REmf6_BrCCmU-22" value="&lt;div style=&quot;font-size: 24px;&quot;&gt;&lt;font style=&quot;font-size: 24px;&quot;&gt;MUXRX&lt;/font&gt;&lt;/div&gt;" style="shape=trapezoid;perimeter=trapezoidPerimeter;whiteSpace=wrap;html=1;fixedSize=1;rotation=-180;fillColor=#fff2cc;strokeColor=#d6b656;" parent="1" vertex="1">
          <mxGeometry x="320" y="460" width="160" height="60" as="geometry" />
        </mxCell>
        <mxCell id="BQeZC8B6REmf6_BrCCmU-72" style="edgeStyle=orthogonalEdgeStyle;rounded=0;orthogonalLoop=1;jettySize=auto;html=1;" parent="1" source="BQeZC8B6REmf6_BrCCmU-26" target="BQeZC8B6REmf6_BrCCmU-11" edge="1">
          <mxGeometry relative="1" as="geometry">
            <Array as="points">
              <mxPoint x="590" y="845" />
              <mxPoint x="590" y="845" />
            </Array>
          </mxGeometry>
        </mxCell>
        <mxCell id="BQeZC8B6REmf6_BrCCmU-26" value="&lt;font size=&quot;1&quot;&gt;&lt;b style=&quot;font-size: 30px;&quot;&gt;ALU&lt;/b&gt;&lt;/font&gt;" style="whiteSpace=wrap;html=1;aspect=fixed;fillColor=#dae8fc;strokeColor=#6c8ebf;" parent="1" vertex="1">
          <mxGeometry x="380" y="780" width="150" height="150" as="geometry" />
        </mxCell>
        <mxCell id="BQeZC8B6REmf6_BrCCmU-29" value="" style="html=1;shadow=0;dashed=0;align=center;verticalAlign=middle;shape=mxgraph.arrows2.arrow;dy=0.6;dx=40;direction=south;notch=0;fillColor=#fad7ac;strokeColor=none;" parent="1" vertex="1">
          <mxGeometry x="375" y="698.13" width="50" height="71.87" as="geometry" />
        </mxCell>
        <mxCell id="BQeZC8B6REmf6_BrCCmU-32" value="" style="rounded=0;whiteSpace=wrap;html=1;strokeColor=none;fillColor=#fad7ac;" parent="1" vertex="1">
          <mxGeometry x="340" y="302.5" width="870" height="35" as="geometry" />
        </mxCell>
        <mxCell id="BQeZC8B6REmf6_BrCCmU-33" value="" style="html=1;shadow=0;dashed=0;align=center;verticalAlign=middle;shape=mxgraph.arrows2.arrow;dy=0.67;dx=40.08;direction=south;notch=0;fillColor=#fad7ac;strokeColor=none;" parent="1" vertex="1">
          <mxGeometry x="420" y="310" width="60" height="140" as="geometry" />
        </mxCell>
        <mxCell id="BQeZC8B6REmf6_BrCCmU-35" value="" style="html=1;shadow=0;dashed=0;align=center;verticalAlign=middle;shape=mxgraph.arrows2.arrow;dy=0.6;dx=40;direction=south;notch=0;fillColor=#fad7ac;strokeColor=none;rotation=-90;" parent="1" vertex="1">
          <mxGeometry x="910" y="-115" width="60" height="555" as="geometry" />
        </mxCell>
        <mxCell id="BQeZC8B6REmf6_BrCCmU-37" value="" style="html=1;shadow=0;dashed=0;align=center;verticalAlign=middle;shape=mxgraph.arrows2.arrow;dy=0.6;dx=40;direction=south;notch=0;fillColor=#fad7ac;strokeColor=none;rotation=-90;" parent="1" vertex="1">
          <mxGeometry x="534.23" y="-7.5" width="60" height="65" as="geometry" />
        </mxCell>
        <mxCell id="BQeZC8B6REmf6_BrCCmU-38" value="" style="html=1;shadow=0;dashed=0;align=center;verticalAlign=middle;shape=mxgraph.arrows2.arrow;dy=0.6;dx=40;direction=south;notch=0;fillColor=#fad7ac;strokeColor=none;rotation=-90;" parent="1" vertex="1">
          <mxGeometry x="526.73" y="80" width="60" height="80" as="geometry" />
        </mxCell>
        <mxCell id="BQeZC8B6REmf6_BrCCmU-40" value="" style="rounded=0;whiteSpace=wrap;html=1;strokeColor=none;fillColor=#fad7ac;rotation=90;" parent="1" vertex="1">
          <mxGeometry x="200.63" y="149.38" width="320" height="40" as="geometry" />
        </mxCell>
        <mxCell id="BQeZC8B6REmf6_BrCCmU-41" value="" style="html=1;shadow=0;dashed=0;align=center;verticalAlign=middle;shape=mxgraph.arrows2.arrow;dy=0.6;dx=40;direction=south;notch=0;fillColor=#fad7ac;strokeColor=none;rotation=-90;" parent="1" vertex="1">
          <mxGeometry x="361.73" y="-30" width="60" height="100" as="geometry" />
        </mxCell>
        <mxCell id="BQeZC8B6REmf6_BrCCmU-42" value="" style="html=1;shadow=0;dashed=0;align=center;verticalAlign=middle;shape=mxgraph.arrows2.arrow;dy=0.6;dx=40;direction=south;notch=0;fillColor=#fad7ac;strokeColor=none;rotation=-90;" parent="1" vertex="1">
          <mxGeometry x="371.73" y="90" width="60" height="80" as="geometry" />
        </mxCell>
        <mxCell id="BQeZC8B6REmf6_BrCCmU-43" value="" style="rounded=0;whiteSpace=wrap;html=1;strokeColor=none;fillColor=#fad7ac;" parent="1" vertex="1">
          <mxGeometry x="261.25" y="1013.12" width="950" height="35" as="geometry" />
        </mxCell>
        <mxCell id="BQeZC8B6REmf6_BrCCmU-44" value="" style="rounded=0;whiteSpace=wrap;html=1;strokeColor=none;fillColor=#fad7ac;rotation=90;" parent="1" vertex="1">
          <mxGeometry x="-31.7" y="687.34" width="625.93" height="42.5" as="geometry" />
        </mxCell>
        <mxCell id="BQeZC8B6REmf6_BrCCmU-45" value="" style="html=1;shadow=0;dashed=0;align=center;verticalAlign=middle;shape=mxgraph.arrows2.arrow;dy=0.6;dx=40;direction=south;notch=0;fillColor=#fad7ac;strokeColor=none;" parent="1" vertex="1">
          <mxGeometry x="370" y="530" width="60" height="75" as="geometry" />
        </mxCell>
        <mxCell id="BQeZC8B6REmf6_BrCCmU-46" value="" style="html=1;shadow=0;dashed=0;align=center;verticalAlign=middle;shape=mxgraph.arrows2.arrow;dy=0.67;dx=40.08;direction=south;notch=0;fillColor=#fad7ac;strokeColor=none;" parent="1" vertex="1">
          <mxGeometry x="340" y="390" width="60" height="70" as="geometry" />
        </mxCell>
        <mxCell id="BQeZC8B6REmf6_BrCCmU-47" value="" style="rounded=0;whiteSpace=wrap;html=1;strokeColor=none;fillColor=#fad7ac;" parent="1" vertex="1">
          <mxGeometry x="260" y="362.5" width="120" height="35" as="geometry" />
        </mxCell>
        <mxCell id="BQeZC8B6REmf6_BrCCmU-48" value="" style="html=1;shadow=0;dashed=0;align=center;verticalAlign=middle;shape=mxgraph.arrows2.arrow;dy=0.6;dx=40;direction=south;notch=0;fillColor=#fad7ac;strokeColor=none;rotation=90;" parent="1" vertex="1">
          <mxGeometry x="1359.38" y="245.63" width="60" height="148.75" as="geometry" />
        </mxCell>
        <mxCell id="BQeZC8B6REmf6_BrCCmU-52" value="" style="html=1;shadow=0;dashed=0;align=center;verticalAlign=middle;shape=mxgraph.arrows2.arrow;dy=0.67;dx=40.08;direction=south;notch=0;fillColor=#fad7ac;strokeColor=none;" parent="1" vertex="1">
          <mxGeometry x="890" y="327.5" width="60" height="70" as="geometry" />
        </mxCell>
        <mxCell id="BQeZC8B6REmf6_BrCCmU-53" value="" style="html=1;shadow=0;dashed=0;align=center;verticalAlign=middle;shape=mxgraph.arrows2.arrow;dy=0.67;dx=40.08;direction=south;notch=0;fillColor=#fad7ac;strokeColor=none;" parent="1" vertex="1">
          <mxGeometry x="890" y="480" width="60" height="80" as="geometry" />
        </mxCell>
        <mxCell id="BQeZC8B6REmf6_BrCCmU-54" value="" style="html=1;shadow=0;dashed=0;align=center;verticalAlign=middle;shape=mxgraph.arrows2.arrow;dy=0.6;dx=40;direction=south;notch=0;fillColor=#fad7ac;strokeColor=none;" parent="1" vertex="1">
          <mxGeometry x="370" y="1030" width="60" height="80" as="geometry" />
        </mxCell>
        <mxCell id="BQeZC8B6REmf6_BrCCmU-55" value="PORT A" style="whiteSpace=wrap;html=1;aspect=fixed;fillColor=#f0a30a;fontColor=#000000;strokeColor=#BD7000;fontSize=24;" parent="1" vertex="1">
          <mxGeometry x="350" y="1310" width="100" height="100" as="geometry" />
        </mxCell>
        <mxCell id="BQeZC8B6REmf6_BrCCmU-59" value="" style="html=1;shadow=0;dashed=0;align=center;verticalAlign=middle;shape=mxgraph.arrows2.arrow;dy=0.6;dx=40;direction=south;notch=0;fillColor=#fad7ac;strokeColor=none;" parent="1" vertex="1">
          <mxGeometry x="370" y="1220" width="60" height="80" as="geometry" />
        </mxCell>
        <mxCell id="BQeZC8B6REmf6_BrCCmU-60" value="PORT B" style="whiteSpace=wrap;html=1;aspect=fixed;fillColor=#f0a30a;fontColor=#000000;strokeColor=#BD7000;fontSize=24;" parent="1" vertex="1">
          <mxGeometry x="1600" y="1300" width="100" height="100" as="geometry" />
        </mxCell>
        <mxCell id="BQeZC8B6REmf6_BrCCmU-61" value="" style="html=1;shadow=0;dashed=0;align=center;verticalAlign=middle;shape=mxgraph.arrows2.arrow;dy=0.6;dx=40;direction=south;notch=0;fillColor=#fad7ac;strokeColor=none;rotation=-180;" parent="1" vertex="1">
          <mxGeometry x="1620" y="1170" width="60" height="120" as="geometry" />
        </mxCell>
        <mxCell id="BQeZC8B6REmf6_BrCCmU-64" value="&lt;font style=&quot;font-size: 90px;&quot;&gt;&lt;b&gt;FPGA&lt;/b&gt;&lt;/font&gt;" style="text;html=1;strokeColor=none;fillColor=none;align=center;verticalAlign=middle;whiteSpace=wrap;rounded=0;" parent="1" vertex="1">
          <mxGeometry x="60" y="-295" width="390" height="180" as="geometry" />
        </mxCell>
        <mxCell id="BQeZC8B6REmf6_BrCCmU-65" value="" style="html=1;shadow=0;dashed=0;align=center;verticalAlign=middle;shape=mxgraph.arrows2.arrow;dy=0.6;dx=40;direction=south;notch=0;fillColor=#d0cee2;strokeColor=none;rotation=-90;" parent="1" vertex="1">
          <mxGeometry x="1560.63" y="751.25" width="60" height="558.75" as="geometry" />
        </mxCell>
        <mxCell id="BQeZC8B6REmf6_BrCCmU-66" value="" style="html=1;shadow=0;dashed=0;align=center;verticalAlign=middle;shape=mxgraph.arrows2.arrow;dy=0.6;dx=40;direction=south;notch=0;fillColor=#d0cee2;strokeColor=none;rotation=-90;" parent="1" vertex="1">
          <mxGeometry x="1469.98" y="310.64" width="60" height="738.69" as="geometry" />
        </mxCell>
        <mxCell id="BQeZC8B6REmf6_BrCCmU-75" value="" style="html=1;shadow=0;dashed=0;align=center;verticalAlign=middle;shape=mxgraph.arrows2.arrow;dy=0.67;dx=40.08;direction=south;notch=0;fillColor=#fad7ac;strokeColor=none;" parent="1" vertex="1">
          <mxGeometry x="465" y="330" width="60" height="440" as="geometry" />
        </mxCell>
        <mxCell id="BQeZC8B6REmf6_BrCCmU-92" value="" style="html=1;shadow=0;dashed=0;align=center;verticalAlign=middle;shape=mxgraph.arrows2.arrow;dy=0.6;dx=40;direction=south;notch=0;fillColor=#d0cee2;strokeColor=none;rotation=90;" parent="1" vertex="1">
          <mxGeometry x="1672.5" y="97.5" width="60" height="342.5" as="geometry" />
        </mxCell>
        <mxCell id="BQeZC8B6REmf6_BrCCmU-93" value="" style="rounded=0;whiteSpace=wrap;html=1;strokeColor=none;fillColor=#fad7ac;rotation=90;" parent="1" vertex="1">
          <mxGeometry x="1305.47" y="689.22" width="690.95" height="42.5" as="geometry" />
        </mxCell>
        <mxCell id="BQeZC8B6REmf6_BrCCmU-94" value="" style="html=1;shadow=0;dashed=0;align=center;verticalAlign=middle;shape=mxgraph.arrows2.arrow;dy=0.6;dx=40;direction=south;notch=0;fillColor=#fad7ac;strokeColor=none;rotation=90;" parent="1" vertex="1">
          <mxGeometry x="1571.25" y="301.25" width="60" height="140" as="geometry" />
        </mxCell>
        <mxCell id="BQeZC8B6REmf6_BrCCmU-99" value="" style="html=1;shadow=0;dashed=0;align=center;verticalAlign=middle;shape=mxgraph.arrows2.arrow;dy=0.6;dx=40;direction=south;notch=0;fillColor=#F89383;strokeColor=default;rotation=-180;" parent="1" vertex="1">
          <mxGeometry x="1580.3100000000002" y="1410" width="139.38" height="160" as="geometry" />
        </mxCell>
        <mxCell id="BQeZC8B6REmf6_BrCCmU-100" value="" style="html=1;shadow=0;dashed=0;align=center;verticalAlign=middle;shape=mxgraph.arrows2.arrow;dy=0.6;dx=40;direction=south;notch=0;fillColor=#F89383;strokeColor=default;rotation=0;" parent="1" vertex="1">
          <mxGeometry x="330.3100000000001" y="1420" width="139.38" height="160" as="geometry" />
        </mxCell>
        <mxCell id="BQeZC8B6REmf6_BrCCmU-102" style="edgeStyle=orthogonalEdgeStyle;rounded=0;orthogonalLoop=1;jettySize=auto;html=1;exitX=1;exitY=0.5;exitDx=0;exitDy=0;exitPerimeter=0;entryX=0.197;entryY=1.003;entryDx=0;entryDy=0;entryPerimeter=0;" parent="1" source="6PFBaUY0d-jLsh0TRGw7-5" target="BQeZC8B6REmf6_BrCCmU-3" edge="1">
          <mxGeometry relative="1" as="geometry">
            <Array as="points">
              <mxPoint x="1241" y="1200" />
              <mxPoint x="927" y="1200" />
            </Array>
            <mxPoint x="928" y="805" as="targetPoint" />
          </mxGeometry>
        </mxCell>
        <mxCell id="BQeZC8B6REmf6_BrCCmU-101" value="" style="html=1;shadow=0;dashed=0;align=center;verticalAlign=middle;shape=mxgraph.arrows2.arrow;dy=0.6;dx=40;direction=south;notch=0;fillColor=#F89383;strokeColor=default;rotation=-180;" parent="1" vertex="1">
          <mxGeometry x="780.0000000000001" y="1410" width="139.38" height="160" as="geometry" />
        </mxCell>
        <mxCell id="BQeZC8B6REmf6_BrCCmU-103" value="&lt;font style=&quot;font-size: 24px;&quot;&gt;RESET&lt;/font&gt;" style="text;html=1;strokeColor=none;fillColor=none;align=center;verticalAlign=middle;whiteSpace=wrap;rounded=0;" parent="1" vertex="1">
          <mxGeometry x="819.69" y="1590" width="60" height="30" as="geometry" />
        </mxCell>
        <mxCell id="BQeZC8B6REmf6_BrCCmU-104" value="&lt;font style=&quot;font-size: 24px;&quot;&gt;INPUTS TO FPGA&lt;br&gt;&lt;/font&gt;" style="text;html=1;strokeColor=none;fillColor=none;align=center;verticalAlign=middle;whiteSpace=wrap;rounded=0;" parent="1" vertex="1">
          <mxGeometry x="1591.42" y="1580" width="119.05" height="80" as="geometry" />
        </mxCell>
        <mxCell id="BQeZC8B6REmf6_BrCCmU-107" value="&lt;font style=&quot;font-size: 24px;&quot;&gt;OUTPUTS FPGA&lt;br&gt;&lt;/font&gt;" style="text;html=1;strokeColor=none;fillColor=none;align=center;verticalAlign=middle;whiteSpace=wrap;rounded=0;" parent="1" vertex="1">
          <mxGeometry x="335" y="1590" width="130" height="80" as="geometry" />
        </mxCell>
        <mxCell id="BQeZC8B6REmf6_BrCCmU-108" value="" style="html=1;shadow=0;dashed=0;align=center;verticalAlign=middle;shape=mxgraph.arrows2.arrow;dy=0.6;dx=40;direction=south;notch=0;fillColor=#fad7ac;strokeColor=none;" parent="1" vertex="1">
          <mxGeometry x="430" y="930" width="50" height="80" as="geometry" />
        </mxCell>
        <mxCell id="6PFBaUY0d-jLsh0TRGw7-4" value="" style="html=1;shadow=0;dashed=0;align=center;verticalAlign=middle;shape=mxgraph.arrows2.arrow;dy=0.6;dx=40;direction=south;notch=0;fillColor=#fad7ac;strokeColor=none;rotation=-90;" vertex="1" parent="1">
          <mxGeometry x="451.73" y="100" width="60" height="230" as="geometry" />
        </mxCell>
        <mxCell id="6PFBaUY0d-jLsh0TRGw7-5" value="" style="html=1;shadow=0;dashed=0;align=center;verticalAlign=middle;shape=mxgraph.arrows2.arrow;dy=0.6;dx=40;direction=south;notch=0;fillColor=#F89383;strokeColor=default;rotation=-180;" vertex="1" parent="1">
          <mxGeometry x="1171" y="1410" width="139.38" height="160" as="geometry" />
        </mxCell>
        <mxCell id="6PFBaUY0d-jLsh0TRGw7-6" value="&lt;font style=&quot;font-size: 24px;&quot;&gt;CLOCK 50MHz&lt;/font&gt;" style="text;html=1;strokeColor=none;fillColor=none;align=center;verticalAlign=middle;whiteSpace=wrap;rounded=0;" vertex="1" parent="1">
          <mxGeometry x="1210.69" y="1590" width="60" height="30" as="geometry" />
        </mxCell>
        <mxCell id="6PFBaUY0d-jLsh0TRGw7-8" style="edgeStyle=orthogonalEdgeStyle;rounded=0;orthogonalLoop=1;jettySize=auto;html=1;entryX=0.116;entryY=0.997;entryDx=0;entryDy=0;entryPerimeter=0;" edge="1" parent="1" source="6PFBaUY0d-jLsh0TRGw7-7" target="BQeZC8B6REmf6_BrCCmU-3">
          <mxGeometry relative="1" as="geometry">
            <Array as="points">
              <mxPoint x="850" y="1200" />
              <mxPoint x="908" y="1200" />
            </Array>
          </mxGeometry>
        </mxCell>
        <mxCell id="6PFBaUY0d-jLsh0TRGw7-7" value="" style="ellipse;whiteSpace=wrap;html=1;aspect=fixed;fillColor=#000000;" vertex="1" parent="1">
          <mxGeometry x="839.69" y="1390" width="20" height="20" as="geometry" />
        </mxCell>
      </root>
    </mxGraphModel>
  </diagram>
</mxfile>
